<?xml version="1.0" standalone="no"?>
<svg xmlns="http://www.w3.org/2000/svg" width="48" height="48"><rect width="48" height="48" opacity="0"></rect><g><path d="M45.98 24.19Q45.98 18.43 43.2 13.44Q40.42 8.45 35.62 5.38Q30.82 2.3 25.06 2.02Q20.69 1.82 16.58 3.26Q12.48 4.7 9.22 7.68Q5.95 10.66 4.1 14.59Q2.26 18.53 2.02 22.94Q1.82 27.31 3.26 31.42Q4.7 35.52 7.68 38.78Q10.66 42.05 14.59 43.9Q18.53 45.74 22.94 45.94Q27.79 45.94 31.37 44.76Q34.94 43.58 38.4 40.56Q38.88 40.18 38.93 39.55Q38.98 38.93 38.54 38.45Q38.16 37.97 37.54 37.92Q36.91 37.87 36.43 38.3Q33.65 40.75 30.19 41.95Q26.74 43.15 23.04 42.96Q19.25 42.77 15.84 41.16Q12.43 39.55 9.89 36.72Q7.34 33.94 6.07 30.41Q4.8 26.88 4.99 23.09Q5.18 19.3 6.77 15.89Q8.35 12.48 11.18 9.94Q13.97 7.34 17.5 6.07Q21.02 4.8 24.86 4.99Q29.86 5.23 33.98 7.85Q38.11 10.46 40.51 14.74Q42.91 19.01 42.91 24L39.7 24Q39.46 24 39.26 24.17Q39.07 24.34 39.02 24.58Q38.98 24.82 39.12 25.06L43.25 31.78Q43.39 32.02 43.66 32.09Q43.92 32.16 44.18 32.06Q44.45 31.97 44.54 31.68Q45.17 30 45.58 27.91Q45.98 25.82 45.98 24.19Z" fill="rgba(255,255,255,1)"></path></g></svg>