<?xml version="1.0" standalone="no"?>
<svg xmlns="http://www.w3.org/2000/svg" width="48" height="48"><rect width="48" height="48" opacity="0"></rect><g><path d="M6.43 9.98Q5.86 9.79 5.21 9.98Q4.56 10.18 4.1 10.7Q3.65 11.23 3.65 12.05L3.65 36.48Q3.65 37.49 4.25 38.33Q4.85 39.17 5.81 39.5L21.89 45.12Q23.71 45.74 25.44 45.07L41.18 39.5Q42.14 39.17 42.74 38.33Q43.34 37.49 43.34 36.48L43.34 12.05Q43.34 11.42 42.96 10.85Q42.58 10.27 41.93 10.01Q41.28 9.74 40.51 9.98L24.86 15.12Q24.29 15.31 23.69 15.31Q23.09 15.31 22.46 15.12L6.43 9.98ZM23.52 21.17Q24.19 21.17 24.65 21.62Q25.1 22.08 25.1 22.75L25.1 36.72Q25.1 37.39 24.65 37.87Q24.19 38.35 23.52 38.35Q22.85 38.35 22.37 37.87Q21.89 37.39 21.89 36.72L21.89 22.75Q21.89 22.08 22.37 21.62Q22.85 21.17 23.52 21.17Z" fill="rgba(255,255,255,1)"></path></g><g><path d="M37.1 5.47Q28.37 6.91 23.52 14.21Q20.74 10.32 17.38 8.26Q14.02 6.19 9.84 5.47L9.84 11.28L22.46 15.36L22.8 15.46Q23.81 15.65 24.86 15.36L37.1 11.33L37.1 5.47Z" fill="rgba(10,89,247,1)"></path></g></svg>