<?xml version="1.0" standalone="no"?>
<svg xmlns="http://www.w3.org/2000/svg" width="48" height="48"><rect width="48" height="48" opacity="0"/><g mask="url(#hms_mask_0)"><path d="M40.75 24.14Q35.28 18.91 29.76 13.73L26.11 10.32Q25.2 9.46 23.98 9.46Q22.75 9.46 21.84 10.32L7.3 24.14Q6.91 24.53 6.72 25.01Q6.53 25.49 6.53 25.97L6.53 39.98Q6.53 41.23 7.13 42.26Q7.73 43.3 8.76 43.9Q9.79 44.5 11.04 44.5L37.01 44.5Q38.21 44.5 39.24 43.9Q40.27 43.3 40.87 42.26Q41.47 41.23 41.47 39.98L41.47 25.92Q41.47 25.39 41.28 24.94Q41.09 24.48 40.75 24.14Z" fill="rgba(0,0,0,0.4)"/></g><defs><mask id="hms_mask_0"><rect width="48" height="48" fill="#ffffff"/><g><path d="M18.05 41.47L18.05 32.35Q18.05 30.1 19.78 28.51Q21.5 26.93 24 26.93Q26.5 26.93 28.22 28.51Q29.95 30.1 29.95 32.35L29.95 41.47Z" fill="#000000"/></g></mask></defs><g><path d="M2.98 22.94Q3.36 23.33 4.03 23.35Q4.7 23.38 5.09 22.99L21.22 7.68Q22.42 6.53 24.02 6.53Q25.63 6.53 26.83 7.68L42.96 22.94Q43.39 23.38 44.02 23.38Q44.64 23.38 45.07 22.9Q45.46 22.46 45.46 21.84Q45.46 21.22 45.02 20.78L28.9 5.52Q27.55 4.22 25.78 3.77Q24 3.31 22.22 3.77Q20.45 4.22 19.1 5.52L3.02 20.78Q2.54 21.22 2.54 21.84Q2.54 22.46 2.98 22.94Z" fill="rgba(10,89,247,1)"/><path d="M29.95 32.35Q29.95 30.1 28.22 28.51Q26.5 26.93 24 26.93Q21.5 26.93 19.78 28.51Q18.05 30.1 18.05 32.35L18.05 41.47L29.95 41.47L29.95 32.35Z" fill="rgba(10,89,247,1)"/></g></svg>
