<?xml version="1.0" standalone="no"?>
<svg xmlns="http://www.w3.org/2000/svg" width="48" height="48"><rect width="48" height="48" opacity="0"></rect><g><path d="M14.88 19.73Q13.68 19.73 12.86 20.54Q12.05 21.36 12.05 22.56Q12.05 23.76 12.86 24.58Q13.68 25.39 14.88 25.39Q16.08 25.39 16.9 24.58Q17.71 23.76 17.71 22.56Q17.71 21.36 16.9 20.54Q16.08 19.73 14.88 19.73ZM10.7 10.9Q8.93 10.9 7.39 11.78Q5.86 12.67 4.94 14.21Q4.03 15.74 4.03 17.57L4.03 37.3Q4.03 39.12 4.92 40.66Q5.81 42.19 7.34 43.08Q8.88 43.97 10.7 43.97L30.43 43.97Q32.21 43.97 33.74 43.08Q35.28 42.19 36.19 40.66Q37.1 39.12 37.1 37.3L37.1 17.57Q37.1 15.79 36.22 14.26Q35.33 12.72 33.79 11.81Q32.26 10.9 30.43 10.9L10.7 10.9ZM30.43 13.92Q31.97 13.92 33.02 14.98Q34.08 16.03 34.08 17.57L34.08 30.58L28.51 25.78Q27.36 24.77 25.85 24.7Q24.34 24.62 23.09 25.54L7.06 37.25L7.06 17.57Q7.06 16.03 8.14 14.98Q9.22 13.92 10.7 13.92L30.43 13.92ZM10.7 40.94Q10.03 40.94 9.41 40.7Q8.78 40.46 8.3 40.03L24.86 27.98Q25.25 27.7 25.73 27.7Q26.21 27.7 26.54 28.03L34.08 34.51L34.08 37.3Q34.08 38.78 33.02 39.86Q31.97 40.94 30.43 40.94L10.7 40.94Z" fill="rgba(255,255,255,1)"></path></g><g><path d="M17.57 4.03Q15.46 4.03 13.78 5.21Q12.1 6.38 11.38 8.3L14.83 8.3Q15.36 7.73 16.06 7.39Q16.75 7.06 17.57 7.06L37.3 7.06Q38.83 7.06 39.91 8.11Q40.99 9.17 40.99 10.7L40.99 30.43Q40.99 31.25 40.63 31.94Q40.27 32.64 39.7 33.17L39.7 36.62Q41.62 35.9 42.79 34.22Q43.97 32.54 43.97 30.43L43.97 10.7Q43.97 8.93 43.08 7.39Q42.19 5.86 40.66 4.94Q39.12 4.03 37.3 4.03L17.57 4.03Z" fill="rgba(10,89,247,1)"></path></g></svg>