<?xml version="1.0" standalone="no"?>
<svg xmlns="http://www.w3.org/2000/svg" width="24" height="24"><rect width="24" height="24" opacity="0"></rect><g><path d="M12 8.02Q10.92 8.02 10.01 8.56Q9.1 9.1 8.56 10.01Q8.02 10.92 8.02 12Q8.02 13.08 8.56 13.99Q9.1 14.9 10.01 15.44Q10.92 15.98 12 15.98Q13.08 15.98 13.99 15.44Q14.9 14.9 15.44 13.99Q15.98 13.08 15.98 12Q15.98 10.92 15.44 10.01Q14.9 9.1 13.99 8.56Q13.08 8.02 12 8.02ZM20.59 11.23Q20.42 9.19 19.34 7.46Q18.26 5.74 16.54 4.66Q14.81 3.58 12.74 3.41L12.74 1.97Q12.74 1.66 12.53 1.43Q12.31 1.2 12 1.2Q11.69 1.2 11.46 1.43Q11.23 1.66 11.23 1.97L11.23 3.41Q9.17 3.58 7.44 4.66Q5.71 5.74 4.62 7.46Q3.53 9.19 3.36 11.26L1.94 11.26Q1.63 11.26 1.42 11.47Q1.2 11.69 1.2 12Q1.2 12.31 1.42 12.54Q1.63 12.77 1.94 12.77L3.36 12.77Q3.53 14.83 4.62 16.56Q5.71 18.29 7.45 19.37Q9.19 20.45 11.26 20.62L11.26 22.03Q11.26 22.34 11.47 22.57Q11.69 22.8 12 22.8Q12.31 22.8 12.54 22.57Q12.77 22.34 12.77 22.03L12.77 20.62Q14.81 20.45 16.54 19.36Q18.26 18.26 19.34 16.54Q20.42 14.81 20.59 12.74L22.03 12.74Q22.34 12.74 22.57 12.53Q22.8 12.31 22.8 12Q22.8 11.69 22.57 11.46Q22.34 11.23 22.03 11.23L20.59 11.23ZM12 19.15Q10.06 19.15 8.41 18.19Q6.77 17.23 5.81 15.59Q4.85 13.94 4.85 12Q4.85 10.06 5.81 8.42Q6.77 6.79 8.41 5.83Q10.06 4.87 12 4.87Q13.94 4.87 15.58 5.83Q17.21 6.79 18.17 8.44Q19.13 10.08 19.13 12.02Q19.13 13.97 18.17 15.6Q17.21 17.23 15.58 18.19Q13.94 19.15 12 19.15Z" fill="rgba(255,255,255,1)"></path></g></svg>