<?xml version="1.0" standalone="no"?>
<svg xmlns="http://www.w3.org/2000/svg" width="48" height="48"><rect width="48" height="48" opacity="0"></rect><g><path d="M9.46 10.46L34.03 10.46Q35.86 10.46 37.2 11.78Q38.54 13.1 38.54 14.98L38.54 29.33Q38.54 29.95 38.98 30.41Q39.41 30.86 40.03 30.86Q40.66 30.86 41.09 30.41Q41.52 29.95 41.52 29.33L41.52 14.98Q41.52 12.91 40.51 11.18Q39.5 9.46 37.78 8.45Q36.05 7.44 34.03 7.44L9.46 7.44L9.46 4.8Q9.46 4.37 9.19 4.1Q8.93 3.84 8.54 3.79Q8.16 3.74 7.82 3.98L2.64 8.16Q2.3 8.45 2.3 8.93Q2.3 9.41 2.64 9.74L7.82 13.87Q8.16 14.11 8.54 14.09Q8.93 14.06 9.19 13.78Q9.46 13.49 9.46 13.1ZM40.18 34.08Q39.84 33.84 39.46 33.89Q39.07 33.94 38.81 34.2Q38.54 34.46 38.54 34.9L38.54 37.54L14.02 37.54Q12.14 37.54 10.82 36.22Q9.5 34.9 9.5 33.02L9.41 18.67Q9.41 18.05 8.98 17.62Q8.54 17.18 7.92 17.18Q7.34 17.18 6.94 17.57Q6.53 17.95 6.48 18.53L6.48 33.02Q6.48 35.09 7.49 36.82Q8.5 38.54 10.25 39.55Q12 40.56 14.02 40.56L38.59 40.56L38.59 43.2Q38.59 43.63 38.86 43.9Q39.12 44.16 39.5 44.18Q39.89 44.21 40.22 43.97L45.36 39.84Q45.74 39.5 45.74 39.02Q45.74 38.54 45.36 38.26L40.18 34.08Z" fill="rgba(255,255,255,1)"></path></g></svg>